<svg version="1.2" xmlns="http://www.w3.org/2000/svg" viewBox="0 0 509 508" width="509" height="508"><style>tspan{white-space:pre}.a{fill:#e6e6e6;stroke:#727272;stroke-linecap:round;stroke-linejoin:round;stroke-width:6}.b{font-size: 12px;fill: #000000;font-weight: 400;font-family: "DejaVuSans", "DejaVu Sans"}.c{fill:#727272}.d{fill:none;stroke:#727272;stroke-linecap:round;stroke-linejoin:round;stroke-width:2}.e{fill:#f00}</style><path class="a" d="m55 0h398.1v501.2h-398.1z"/><text style="transform:matrix(1,0,0,1,269,465.9)" ><tspan x="0" y="0" class="b">C</tspan><tspan  y="0" class="b">V</tspan><tspan  y="0" class="b">D
</tspan></text><path class="c" d="m91.5 37.4h120v38.5h-120z"/><path class="c" d="m312.4 56.5h116.6v2h-116.6z"/><path class="c" d="m121.5 123.2h120v2h-120z"/><path class="c" d="m121.2 149.2h200v2h-200z"/><path class="c" d="m121.5 173.2h120v2h-120z"/><path class="c" d="m121.5 193.2h120v2h-120z"/><path class="c" d="m121.5 253.2h300v2h-300z"/><path class="c" d="m121.5 273.2h300v2h-300z"/><path class="c" d="m121.5 293.2h300v2h-300z"/><path class="c" d="m121.5 313.2h300v2h-300z"/><path class="c" d="m121.5 333.2h300v2h-300z"/><path class="c" d="m121.5 353.2h300v2h-300z"/><path class="c" d="m121.5 373.2h300v2h-300z"/><path fill-rule="evenodd" class="d" d="m91.5 447.8h327.6v26.2h-327.6z"/><path  d="m298 460.9v-1.7h1.7v1.7zm0 4.6v-1.7h1.6v1.7z"/><path fill-rule="evenodd" class="e" d="m334.9 466.5v-1.8h-3.5v-1.4l3.7-5.5h1.4v5.5h1.1v1.4h-1.1v1.8zm0-3.2v-3l-2 3z"/><path fill-rule="evenodd" class="e" d="m306.9 466.5v-1.8h-3.5v-1.4l3.7-5.5h1.4v5.5h1.1v1.4h-1.1v1.8zm0-3.2v-3l-2 3z"/><path fill-rule="evenodd" class="e" d="m341.9 466.5v-1.8h-3.5v-1.4l3.7-5.5h1.4v5.5h1.1v1.4h-1.1v1.8zm0-3.2v-3l-2 3z"/><path class="e" d="m351.4 464.2l1.6-0.1q0.1 0.5 0.5 0.9 0.3 0.3 0.7 0.3 0.6 0 0.9-0.4 0.4-0.5 0.4-1.3 0-0.8-0.4-1.2-0.3-0.4-0.9-0.4-0.7 0-1.3 0.7l-1.3-0.2 0.8-4.5h4.4v1.5h-3.1l-0.3 1.5q0.6-0.3 1.2-0.3 1 0 1.8 0.8 0.8 0.8 0.8 2.1 0 1-0.6 1.9-0.9 1.1-2.4 1.1-1.2 0-1.9-0.6-0.8-0.7-0.9-1.8z"/><path class="e" d="m309.4 464.2l1.6-0.1q0.1 0.5 0.5 0.9 0.3 0.3 0.7 0.3 0.6 0 0.9-0.4 0.4-0.5 0.4-1.3 0-0.8-0.4-1.2-0.3-0.4-0.9-0.4-0.7 0-1.3 0.7l-1.3-0.2 0.8-4.5h4.4v1.5h-3.1l-0.3 1.5q0.6-0.3 1.2-0.3 1 0 1.8 0.8 0.8 0.8 0.8 2.1 0 1-0.6 1.9-0.9 1.1-2.4 1.1-1.2 0-1.9-0.6-0.8-0.7-0.9-1.8z"/><path class="e" d="m345.4 464.2l1.6-0.1q0.1 0.5 0.5 0.9 0.3 0.3 0.7 0.3 0.6 0 0.9-0.4 0.4-0.5 0.4-1.3 0-0.8-0.4-1.2-0.3-0.4-0.9-0.4-0.7 0-1.3 0.7l-1.3-0.2 0.8-4.5h4.4v1.5h-3.1l-0.3 1.5q0.6-0.3 1.2-0.3 1 0 1.8 0.8 0.8 0.8 0.8 2.1 0 1-0.6 1.9-0.9 1.1-2.4 1.1-1.2 0-1.9-0.6-0.8-0.7-0.9-1.8z"/><path fill-rule="evenodd" class="e" d="m372.6 460l-1.6 0.1q0-0.4-0.3-0.7-0.2-0.2-0.6-0.2-0.5 0-0.9 0.5-0.4 0.4-0.4 1.9 0.6-0.7 1.5-0.7 1 0 1.7 0.8 0.8 0.7 0.8 2 0 1.3-0.8 2.1-0.8 0.8-2 0.8-1.3 0-2.1-1-0.9-1-0.9-3.3 0-2.4 0.9-3.4 0.9-1.1 2.3-1.1 1 0 1.6 0.6 0.7 0.5 0.8 1.6zm-3.7 3.6q0 0.8 0.4 1.2 0.3 0.4 0.8 0.4 0.5 0 0.8-0.3 0.3-0.4 0.3-1.2 0-0.8-0.4-1.2-0.3-0.4-0.8-0.4-0.5 0-0.8 0.4-0.3 0.3-0.3 1.1z"/><path fill-rule="evenodd" class="e" d="m366.6 460l-1.6 0.1q0-0.4-0.3-0.7-0.2-0.2-0.6-0.2-0.5 0-0.9 0.5-0.4 0.4-0.4 1.9 0.6-0.7 1.5-0.7 1 0 1.7 0.8 0.8 0.7 0.8 2 0 1.3-0.8 2.1-0.8 0.8-2 0.8-1.3 0-2.1-1-0.9-1-0.9-3.3 0-2.4 0.9-3.4 0.9-1.1 2.3-1.1 1 0 1.6 0.6 0.7 0.5 0.8 1.6zm-3.7 3.6q0 0.8 0.4 1.2 0.3 0.4 0.8 0.4 0.5 0 0.8-0.3 0.3-0.4 0.3-1.2 0-0.8-0.4-1.2-0.3-0.4-0.8-0.4-0.5 0-0.8 0.4-0.3 0.3-0.3 1.1z"/><path fill-rule="evenodd" class="e" d="m321.6 460l-1.6 0.1q0-0.4-0.3-0.7-0.2-0.2-0.6-0.2-0.5 0-0.9 0.5-0.4 0.4-0.4 1.9 0.6-0.7 1.5-0.7 1 0 1.7 0.8 0.8 0.7 0.8 2 0 1.3-0.8 2.1-0.8 0.8-2 0.8-1.3 0-2.1-1-0.9-1-0.9-3.3 0-2.4 0.9-3.4 0.9-1.1 2.3-1.1 1 0 1.6 0.6 0.7 0.5 0.8 1.6zm-3.7 3.6q0 0.8 0.4 1.2 0.3 0.4 0.8 0.4 0.5 0 0.8-0.3 0.3-0.4 0.3-1.2 0-0.8-0.4-1.2-0.3-0.4-0.8-0.4-0.5 0-0.8 0.4-0.3 0.3-0.3 1.1z"/><path fill-rule="evenodd" class="e" d="m378.7 464.5l1.6-0.2q0.1 0.5 0.4 0.7 0.2 0.2 0.6 0.2 0.5 0 0.9-0.4 0.3-0.5 0.4-2-0.6 0.8-1.5 0.8-1 0-1.8-0.8-0.7-0.8-0.7-2.1 0-1.3 0.8-2.1 0.7-0.8 1.9-0.8 1.3 0 2.2 1 0.8 1.1 0.8 3.4 0 2.3-0.8 3.4-0.9 1-2.3 1-1 0-1.6-0.5-0.7-0.6-0.9-1.6zm3.8-3.6q0-0.8-0.4-1.3-0.3-0.4-0.8-0.4-0.5 0-0.8 0.4-0.3 0.3-0.3 1.1 0 0.9 0.3 1.3 0.4 0.4 0.9 0.4 0.4 0 0.8-0.4 0.3-0.4 0.3-1.1z"/><path fill-rule="evenodd" class="e" d="m372.7 464.5l1.6-0.2q0.1 0.5 0.4 0.7 0.2 0.2 0.6 0.2 0.5 0 0.9-0.4 0.3-0.5 0.4-2-0.6 0.8-1.5 0.8-1 0-1.8-0.8-0.7-0.8-0.7-2.1 0-1.3 0.8-2.1 0.7-0.8 1.9-0.8 1.3 0 2.2 1 0.8 1.1 0.8 3.4 0 2.3-0.8 3.4-0.9 1-2.3 1-1 0-1.6-0.5-0.7-0.6-0.9-1.6zm3.8-3.6q0-0.8-0.4-1.3-0.3-0.4-0.8-0.4-0.5 0-0.8 0.4-0.3 0.3-0.3 1.1 0 0.9 0.3 1.3 0.4 0.4 0.9 0.4 0.4 0 0.8-0.4 0.3-0.4 0.3-1.1z"/><path fill-rule="evenodd" class="e" d="m395.8 461.8q-0.6-0.2-0.9-0.7-0.3-0.5-0.3-1.1 0-0.9 0.7-1.5 0.6-0.7 1.9-0.7 1.2 0 1.9 0.7 0.6 0.6 0.6 1.5 0 0.6-0.3 1.1-0.3 0.5-0.8 0.7 0.7 0.3 1 0.9 0.4 0.5 0.4 1.2 0 1.2-0.7 2-0.8 0.7-2.1 0.7-1.1 0-1.9-0.6-0.9-0.7-0.9-2 0-0.7 0.3-1.3 0.4-0.6 1.1-0.9zm0.3-1.6q0 0.5 0.3 0.7 0.3 0.3 0.8 0.3 0.4 0 0.7-0.3 0.3-0.3 0.3-0.7 0-0.5-0.3-0.8-0.3-0.3-0.7-0.3-0.5 0-0.8 0.3-0.3 0.3-0.3 0.8zm-0.1 3.6q0 0.7 0.3 1.1 0.4 0.4 0.9 0.4 0.5 0 0.9-0.4 0.3-0.4 0.3-1 0-0.6-0.4-1-0.3-0.4-0.8-0.4-0.6 0-0.9 0.4-0.3 0.5-0.3 0.9z"/><path fill-rule="evenodd" class="e" d="m323.8 461.8q-0.6-0.2-0.9-0.7-0.3-0.5-0.3-1.1 0-0.9 0.7-1.5 0.6-0.7 1.9-0.7 1.2 0 1.9 0.7 0.6 0.6 0.6 1.5 0 0.6-0.3 1.1-0.3 0.5-0.8 0.7 0.7 0.3 1 0.9 0.4 0.5 0.4 1.2 0 1.2-0.7 2-0.8 0.7-2.1 0.7-1.1 0-1.9-0.6-0.9-0.7-0.9-2 0-0.7 0.3-1.3 0.4-0.6 1.1-0.9zm0.3-1.6q0 0.5 0.3 0.7 0.3 0.3 0.8 0.3 0.4 0 0.7-0.3 0.3-0.3 0.3-0.7 0-0.5-0.3-0.8-0.3-0.3-0.7-0.3-0.5 0-0.8 0.3-0.3 0.3-0.3 0.8zm-0.1 3.6q0 0.7 0.3 1.1 0.4 0.4 0.9 0.4 0.5 0 0.9-0.4 0.3-0.4 0.3-1 0-0.6-0.4-1-0.3-0.4-0.8-0.4-0.6 0-0.9 0.4-0.3 0.5-0.3 0.9z"/><path fill-rule="evenodd" class="e" d="m389.8 461.8q-0.6-0.2-0.9-0.7-0.3-0.5-0.3-1.1 0-0.9 0.7-1.5 0.6-0.7 1.9-0.7 1.2 0 1.9 0.7 0.6 0.6 0.6 1.5 0 0.6-0.3 1.1-0.3 0.5-0.8 0.7 0.7 0.3 1 0.9 0.4 0.5 0.4 1.2 0 1.2-0.7 2-0.8 0.7-2.1 0.7-1.1 0-1.9-0.6-0.9-0.7-0.9-2 0-0.7 0.3-1.3 0.4-0.6 1.1-0.9zm0.3-1.6q0 0.5 0.3 0.7 0.3 0.3 0.8 0.3 0.4 0 0.7-0.3 0.3-0.3 0.3-0.7 0-0.5-0.3-0.8-0.3-0.3-0.7-0.3-0.5 0-0.8 0.3-0.3 0.3-0.3 0.8zm-0.1 3.6q0 0.7 0.3 1.1 0.4 0.4 0.9 0.4 0.5 0 0.9-0.4 0.3-0.4 0.3-1 0-0.6-0.4-1-0.3-0.4-0.8-0.4-0.6 0-0.9 0.4-0.3 0.5-0.3 0.9z"/><path class="e" d="m400.1 459.5v-1.5h5.6v1.2q-0.7 0.7-1.4 2-0.7 1.2-1.1 2.7-0.4 1.4-0.4 2.6h-1.6q0.1-1.8 0.8-3.7 0.7-1.8 1.8-3.3z"/><path class="e" d="m406.1 459.5v-1.5h5.6v1.2q-0.7 0.7-1.4 2-0.7 1.2-1.1 2.7-0.4 1.4-0.4 2.6h-1.6q0.1-1.8 0.8-3.7 0.7-1.8 1.8-3.3z"/></svg>